<mxfile host="app.diagrams.net" modified="2021-10-23T05:30:50.111Z" agent="5.0 (X11; Linux x86_64) AppleWebKit/537.36 (KHTML, like Gecko) Chrome/94.0.4606.71 Safari/537.36" etag="mc75mOseLYatzgO1YboS" version="15.4.2" type="github">
  <diagram id="Kb73tBab5fj37IaMXuoQ" name="Page-1">
    <mxGraphModel dx="1355" dy="773" grid="1" gridSize="10" guides="1" tooltips="1" connect="1" arrows="1" fold="1" page="1" pageScale="1" pageWidth="850" pageHeight="1100" math="0" shadow="0">
      <root>
        <mxCell id="0" />
        <mxCell id="1" parent="0" />
        <mxCell id="vTavbFFGJseJFdY00NEz-1" value="" style="rounded=0;whiteSpace=wrap;html=1;" vertex="1" parent="1">
          <mxGeometry x="320" y="150" width="210" height="160" as="geometry" />
        </mxCell>
        <mxCell id="vTavbFFGJseJFdY00NEz-2" value="" style="line;strokeWidth=2;direction=south;html=1;" vertex="1" parent="1">
          <mxGeometry x="370" y="150" width="10" height="160" as="geometry" />
        </mxCell>
        <mxCell id="vTavbFFGJseJFdY00NEz-3" value="" style="line;strokeWidth=2;direction=south;html=1;" vertex="1" parent="1">
          <mxGeometry x="420" y="150" width="10" height="160" as="geometry" />
        </mxCell>
        <mxCell id="vTavbFFGJseJFdY00NEz-4" value="" style="line;strokeWidth=2;direction=south;html=1;" vertex="1" parent="1">
          <mxGeometry x="470" y="150" width="10" height="160" as="geometry" />
        </mxCell>
        <mxCell id="vTavbFFGJseJFdY00NEz-5" value="" style="line;strokeWidth=2;direction=south;html=1;" vertex="1" parent="1">
          <mxGeometry x="520" y="150" width="10" height="160" as="geometry" />
        </mxCell>
        <mxCell id="vTavbFFGJseJFdY00NEz-7" value="" style="line;strokeWidth=2;direction=south;html=1;" vertex="1" parent="1">
          <mxGeometry x="320" y="150" width="10" height="160" as="geometry" />
        </mxCell>
        <mxCell id="vTavbFFGJseJFdY00NEz-8" value="&lt;font style=&quot;font-size: 14px&quot;&gt;0&lt;/font&gt;" style="text;html=1;align=center;verticalAlign=middle;resizable=0;points=[];autosize=1;strokeColor=none;fillColor=none;strokeWidth=2;" vertex="1" parent="1">
          <mxGeometry x="315" y="310" width="20" height="20" as="geometry" />
        </mxCell>
        <mxCell id="vTavbFFGJseJFdY00NEz-9" value="&lt;font style=&quot;font-size: 14px&quot;&gt;1&lt;/font&gt;" style="text;html=1;align=center;verticalAlign=middle;resizable=0;points=[];autosize=1;strokeColor=none;fillColor=none;" vertex="1" parent="1">
          <mxGeometry x="365" y="310" width="20" height="20" as="geometry" />
        </mxCell>
        <mxCell id="vTavbFFGJseJFdY00NEz-10" value="&lt;font style=&quot;font-size: 14px&quot;&gt;2&lt;/font&gt;" style="text;html=1;align=center;verticalAlign=middle;resizable=0;points=[];autosize=1;strokeColor=none;fillColor=none;" vertex="1" parent="1">
          <mxGeometry x="415" y="310" width="20" height="20" as="geometry" />
        </mxCell>
        <mxCell id="vTavbFFGJseJFdY00NEz-11" value="&lt;font style=&quot;font-size: 14px&quot;&gt;3&lt;/font&gt;" style="text;html=1;align=center;verticalAlign=middle;resizable=0;points=[];autosize=1;strokeColor=none;fillColor=none;" vertex="1" parent="1">
          <mxGeometry x="465" y="310" width="20" height="20" as="geometry" />
        </mxCell>
        <mxCell id="vTavbFFGJseJFdY00NEz-12" value="&lt;font style=&quot;font-size: 14px&quot;&gt;4&lt;/font&gt;" style="text;html=1;align=center;verticalAlign=middle;resizable=0;points=[];autosize=1;strokeColor=none;fillColor=none;" vertex="1" parent="1">
          <mxGeometry x="515" y="310" width="20" height="20" as="geometry" />
        </mxCell>
        <mxCell id="vTavbFFGJseJFdY00NEz-15" value="" style="line;strokeWidth=2;html=1;fontSize=14;" vertex="1" parent="1">
          <mxGeometry x="310" y="300" width="10" height="10" as="geometry" />
        </mxCell>
        <mxCell id="vTavbFFGJseJFdY00NEz-16" value="0.0&lt;br&gt;" style="text;html=1;align=center;verticalAlign=middle;resizable=0;points=[];autosize=1;strokeColor=none;fillColor=none;fontSize=14;" vertex="1" parent="1">
          <mxGeometry x="280" y="295" width="30" height="20" as="geometry" />
        </mxCell>
        <mxCell id="vTavbFFGJseJFdY00NEz-17" value="" style="line;strokeWidth=2;html=1;fontSize=14;" vertex="1" parent="1">
          <mxGeometry x="310" y="150" width="10" height="10" as="geometry" />
        </mxCell>
        <mxCell id="vTavbFFGJseJFdY00NEz-22" value="5&lt;br&gt;" style="text;html=1;align=center;verticalAlign=middle;resizable=0;points=[];autosize=1;strokeColor=none;fillColor=none;fontSize=14;" vertex="1" parent="1">
          <mxGeometry x="290" y="145" width="20" height="20" as="geometry" />
        </mxCell>
        <mxCell id="vTavbFFGJseJFdY00NEz-23" value="" style="line;strokeWidth=2;html=1;fontSize=14;" vertex="1" parent="1">
          <mxGeometry x="310" y="225" width="10" height="10" as="geometry" />
        </mxCell>
        <mxCell id="vTavbFFGJseJFdY00NEz-24" value="2.5&lt;br&gt;" style="text;html=1;align=center;verticalAlign=middle;resizable=0;points=[];autosize=1;strokeColor=none;fillColor=none;fontSize=14;" vertex="1" parent="1">
          <mxGeometry x="280" y="220" width="30" height="20" as="geometry" />
        </mxCell>
        <mxCell id="vTavbFFGJseJFdY00NEz-25" value="" style="ellipse;whiteSpace=wrap;html=1;aspect=fixed;fontSize=14;strokeWidth=2;fillColor=#FF6666;strokeColor=#b85450;" vertex="1" parent="1">
          <mxGeometry x="321" y="151" width="9" height="9" as="geometry" />
        </mxCell>
        <mxCell id="vTavbFFGJseJFdY00NEz-32" value="" style="ellipse;whiteSpace=wrap;html=1;aspect=fixed;fontSize=14;strokeWidth=2;fillColor=#FF6666;strokeColor=#b85450;" vertex="1" parent="1">
          <mxGeometry x="370.5" y="180" width="9" height="9" as="geometry" />
        </mxCell>
        <mxCell id="vTavbFFGJseJFdY00NEz-33" value="" style="ellipse;whiteSpace=wrap;html=1;aspect=fixed;fontSize=14;strokeWidth=2;fillColor=#FF6666;strokeColor=#b85450;" vertex="1" parent="1">
          <mxGeometry x="420.5" y="225" width="9" height="9" as="geometry" />
        </mxCell>
        <mxCell id="vTavbFFGJseJFdY00NEz-34" value="" style="ellipse;whiteSpace=wrap;html=1;aspect=fixed;fontSize=14;strokeWidth=2;fillColor=#FF6666;strokeColor=#b85450;" vertex="1" parent="1">
          <mxGeometry x="470.5" y="260" width="9" height="9" as="geometry" />
        </mxCell>
        <mxCell id="vTavbFFGJseJFdY00NEz-36" value="" style="ellipse;whiteSpace=wrap;html=1;aspect=fixed;fontSize=14;strokeWidth=2;fillColor=#FF6666;strokeColor=#b85450;" vertex="1" parent="1">
          <mxGeometry x="520.5" y="301" width="9" height="9" as="geometry" />
        </mxCell>
        <mxCell id="vTavbFFGJseJFdY00NEz-38" value="h = [5,3.5,2.5,1.25,0.0]" style="text;html=1;align=center;verticalAlign=middle;resizable=0;points=[];autosize=1;strokeColor=none;fillColor=none;fontSize=17;" vertex="1" parent="1">
          <mxGeometry x="330" y="330" width="190" height="30" as="geometry" />
        </mxCell>
      </root>
    </mxGraphModel>
  </diagram>
</mxfile>
